<svg version="1.1" preserveAspectRatio="none" xmlns="http://www.w3.org/2000/svg" width="500" height="500" viewBox="0 0 500 500"><rect width="100%" height="100%" fill="#0A0A0A" fill-opacity="1"/><svg viewBox="126.2893 463.6473 357.4838 220" width="333" height="204.9323633686338" x="83.5px" y="147.5338px" xmlns="http://www.w3.org/2000/svg" xmlns:xlink="http://www.w3.org/1999/xlink" preserveAspectRatio="none"><defs></defs><style>.companyName {fill:#E9E9E9;fill-opacity:1;}.icon2 {fill:#7065EF;fill-opacity:1;}.icon3 {fill:#C4C4C4;fill-opacity:1;}.icon3-str {stroke:#C4C4C4;stroke-opacity:1;}.shape {fill:#28208C;fill-opacity:1;}.text {fill:#E9E9E9;fill-opacity:1;}</style><g opacity="1" transform="rotate(0 139.4584 463.6473)">
<svg width="331.1457" height="220" x="139.4584" y="463.6473" version="1.1" preserveAspectRatio="none" viewBox="4.200999736785889 21.96699905395508 89.02999114990234 59.14799880981445">
  <g transform="matrix(1 0 0 1 0 0)" class="shape"><g><circle cx="46.796" cy="22.734" r="0.767"></circle><circle cx="46.796" cy="26.58" r="0.886"></circle><circle cx="46.796" cy="30.425" r="1.004"></circle><circle cx="46.797" cy="34.271" r="1.12"></circle><circle cx="46.796" cy="38.079" r="1.24"></circle><circle cx="46.797" cy="41.963" r="1.356"></circle><circle cx="46.797" cy="45.809" r="1.476"></circle><circle cx="43.004" cy="22.734" r="0.767"></circle><circle cx="43.004" cy="26.58" r="0.886"></circle><circle cx="43.004" cy="30.425" r="1.004"></circle><circle cx="43.004" cy="34.271" r="1.12"></circle><circle cx="43.004" cy="38.079" r="1.24"></circle><circle cx="43.004" cy="41.963" r="1.356"></circle><circle cx="43.004" cy="80.348" r="0.767"></circle><circle cx="43.004" cy="76.57" r="0.886"></circle><circle cx="43.004" cy="72.723" r="1.003"></circle><circle cx="43.004" cy="68.876" r="1.121"></circle><circle cx="43.004" cy="65.031" r="1.239"></circle><circle cx="43.004" cy="61.186" r="1.356"></circle><circle cx="46.796" cy="80.348" r="0.767"></circle><circle cx="46.796" cy="76.57" r="0.886"></circle><circle cx="46.796" cy="72.723" r="1.003"></circle><circle cx="46.797" cy="68.876" r="1.121"></circle><circle cx="46.796" cy="65.031" r="1.239"></circle><circle cx="46.797" cy="61.186" r="1.356"></circle><circle cx="43.004" cy="45.809" r="1.476"></circle><circle cx="46.797" cy="49.447" r="1.476"></circle><circle cx="43.004" cy="49.447" r="1.476"></circle><circle cx="46.797" cy="53.083" r="1.475"></circle><circle cx="43.004" cy="53.083" r="1.475"></circle><circle cx="46.797" cy="57.024" r="1.475"></circle><circle cx="50.594" cy="22.734" r="0.767"></circle><circle cx="50.591" cy="26.58" r="0.886"></circle><circle cx="50.586" cy="30.425" r="1.004"></circle><circle cx="50.582" cy="34.271" r="1.12"></circle><circle cx="50.578" cy="38.079" r="1.24"></circle><circle cx="50.573" cy="41.963" r="1.356"></circle><circle cx="50.57" cy="45.809" r="1.476"></circle><circle cx="50.594" cy="80.348" r="0.767"></circle><circle cx="50.591" cy="76.57" r="0.886"></circle><circle cx="50.586" cy="72.723" r="1.003"></circle><circle cx="50.582" cy="68.876" r="1.121"></circle><circle cx="50.578" cy="65.031" r="1.239"></circle><circle cx="50.573" cy="61.186" r="1.356"></circle><circle cx="50.57" cy="49.447" r="1.476"></circle><circle cx="50.57" cy="53.083" r="1.475"></circle><circle cx="50.57" cy="57.024" r="1.475"></circle><circle cx="54.53" cy="76.57" r="0.886"></circle><circle cx="54.525" cy="72.723" r="1.003"></circle><circle cx="54.522" cy="68.876" r="1.121"></circle><circle cx="54.52" cy="65.031" r="1.239"></circle><circle cx="58.309" cy="49.571" r="1.24"></circle><circle cx="62.145" cy="49.571" r="1.144"></circle><circle cx="65.983" cy="49.571" r="1.049"></circle><circle cx="69.821" cy="49.571" r="0.954"></circle><circle cx="73.659" cy="49.571" r="0.859"></circle><circle cx="77.497" cy="49.571" r="0.763"></circle><circle cx="81.334" cy="49.571" r="0.668"></circle><circle cx="85.172" cy="49.571" r="0.573"></circle><circle cx="89.01" cy="49.571" r="0.479"></circle><circle cx="92.848" cy="49.571" r="0.383"></circle><path d="M35.535,52.165c0.684,0,1.239,0.553,1.239,1.238s-0.556,1.24-1.239,1.24s-1.238-0.555-1.238-1.24   C34.297,52.722,34.852,52.165,35.535,52.165z"></path><circle cx="31.698" cy="53.403" r="1.144"></circle><circle cx="27.713" cy="53.403" r="0.764"></circle><circle cx="23.876" cy="53.403" r="0.668"></circle><circle cx="20.038" cy="53.403" r="0.573"></circle><circle cx="16.2" cy="53.403" r="0.479"></circle><circle cx="12.363" cy="53.403" r="0.383"></circle><circle cx="58.356" cy="57.149" r="1.144"></circle><circle cx="62.194" cy="57.149" r="1.049"></circle><circle cx="66.032" cy="57.149" r="0.953"></circle><circle cx="69.87" cy="57.149" r="0.858"></circle><circle cx="73.707" cy="57.149" r="0.763"></circle><circle cx="77.545" cy="57.149" r="0.669"></circle><circle cx="81.383" cy="57.149" r="0.572"></circle><circle cx="85.221" cy="57.149" r="0.479"></circle><circle cx="89.058" cy="57.149" r="0.383"></circle><circle cx="58.356" cy="60.788" r="1.144"></circle><circle cx="62.194" cy="60.788" r="1.049"></circle><circle cx="66.032" cy="60.788" r="0.953"></circle><path d="M70.729,60.788c0,0.473-0.384,0.857-0.859,0.857c-0.474,0-0.857-0.385-0.857-0.857c0-0.477,0.384-0.859,0.857-0.859   C70.345,59.929,70.729,60.312,70.729,60.788z"></path><circle cx="73.707" cy="60.788" r="0.763"></circle><circle cx="77.545" cy="60.788" r="0.669"></circle><circle cx="81.383" cy="60.788" r="0.572"></circle><circle cx="85.221" cy="60.788" r="0.479"></circle><circle cx="89.058" cy="60.788" r="0.383"></circle><circle cx="58.449" cy="65.032" r="0.668"></circle><circle cx="62.286" cy="65.032" r="0.573"></circle><circle cx="66.124" cy="65.032" r="0.477"></circle><circle cx="69.963" cy="65.031" r="0.384"></circle><circle cx="58.449" cy="68.972" r="0.668"></circle><circle cx="62.286" cy="68.972" r="0.573"></circle><circle cx="66.124" cy="68.972" r="0.477"></circle><circle cx="69.963" cy="68.973" r="0.382"></circle><circle cx="58.449" cy="72.761" r="0.668"></circle><circle cx="62.286" cy="72.761" r="0.573"></circle><circle cx="66.124" cy="72.761" r="0.477"></circle><circle cx="69.963" cy="72.762" r="0.382"></circle><path d="M59.117,76.548c0,0.369-0.3,0.67-0.669,0.67s-0.668-0.301-0.668-0.67c0-0.367,0.299-0.666,0.668-0.666   S59.117,76.181,59.117,76.548z"></path><path d="M62.858,76.548c0,0.318-0.255,0.576-0.572,0.576c-0.316,0-0.573-0.258-0.573-0.576c0-0.314,0.257-0.57,0.573-0.57   C62.604,75.978,62.858,76.233,62.858,76.548z"></path><path d="M66.601,76.548c0,0.264-0.212,0.48-0.478,0.48c-0.263,0-0.477-0.217-0.477-0.48c0-0.262,0.214-0.477,0.477-0.477   C66.389,76.071,66.601,76.286,66.601,76.548z"></path><circle cx="39.236" cy="80.348" r="0.767"></circle><circle cx="35.301" cy="80.349" r="0.573"></circle><circle cx="31.464" cy="80.349" r="0.478"></circle><circle cx="27.627" cy="80.349" r="0.383"></circle><circle cx="58.309" cy="53.209" r="1.239"></circle><circle cx="62.145" cy="53.21" r="1.144"></circle><circle cx="65.983" cy="53.21" r="1.049"></circle><circle cx="69.821" cy="53.21" r="0.954"></circle><circle cx="73.659" cy="53.21" r="0.859"></circle><circle cx="77.497" cy="53.21" r="0.763"></circle><circle cx="81.334" cy="53.21" r="0.668"></circle><circle cx="85.172" cy="53.21" r="0.573"></circle><circle cx="89.01" cy="53.21" r="0.479"></circle><circle cx="54.514" cy="61.186" r="1.356"></circle><circle cx="54.511" cy="49.447" r="1.476"></circle><circle cx="58.309" cy="45.783" r="1.239"></circle><circle cx="62.145" cy="45.782" r="1.144"></circle><circle cx="65.983" cy="45.782" r="1.049"></circle><circle cx="69.821" cy="45.782" r="0.954"></circle><circle cx="73.659" cy="45.782" r="0.859"></circle><circle cx="77.497" cy="45.782" r="0.763"></circle><path d="M82.002,45.782c0,0.369-0.299,0.67-0.667,0.67c-0.369,0-0.669-0.301-0.669-0.67c0-0.367,0.3-0.668,0.669-0.668   C81.703,45.114,82.002,45.415,82.002,45.782z"></path><circle cx="85.172" cy="45.782" r="0.573"></circle><circle cx="89.01" cy="45.782" r="0.479"></circle><circle cx="92.848" cy="45.782" r="0.383"></circle><circle cx="35.441" cy="45.632" r="0.954"></circle><circle cx="31.604" cy="45.632" r="0.858"></circle><circle cx="27.766" cy="45.632" r="0.764"></circle><circle cx="23.928" cy="45.632" r="0.668"></circle><circle cx="20.09" cy="45.632" r="0.573"></circle><circle cx="16.252" cy="45.632" r="0.478"></circle><circle cx="12.414" cy="45.631" r="0.382"></circle><circle cx="35.368" cy="30.323" r="0.574"></circle><circle cx="31.529" cy="30.323" r="0.479"></circle><circle cx="27.692" cy="30.323" r="0.383"></circle><circle cx="35.368" cy="34.265" r="0.689"></circle><circle cx="31.529" cy="34.265" r="0.479"></circle><circle cx="27.692" cy="34.265" r="0.383"></circle><circle cx="35.463" cy="26.687" r="0.478"></circle><path d="M54.52,43.233c-0.686,0-1.24-0.555-1.24-1.24c0-0.682,0.555-1.238,1.24-1.238c0.683,0,1.237,0.557,1.237,1.238   C55.757,42.679,55.202,43.233,54.52,43.233z"></path><circle cx="58.356" cy="41.993" r="1.144"></circle><circle cx="62.194" cy="41.993" r="1.049"></circle><circle cx="54.52" cy="38.079" r="1.24"></circle><circle cx="58.356" cy="38.079" r="1.144"></circle><circle cx="62.194" cy="38.079" r="1.049"></circle><circle cx="66.032" cy="41.993" r="0.953"></circle><path d="M70.729,41.993c0,0.473-0.384,0.861-0.859,0.861c-0.474,0-0.857-0.389-0.857-0.861s0.384-0.859,0.857-0.859   C70.345,41.134,70.729,41.521,70.729,41.993z"></path><circle cx="54.464" cy="34.265" r="1.049"></circle><circle cx="58.302" cy="34.265" r="0.954"></circle><circle cx="62.14" cy="34.265" r="0.859"></circle><circle cx="73.707" cy="41.993" r="0.763"></circle><circle cx="77.545" cy="41.993" r="0.669"></circle><circle cx="66.027" cy="38.079" r="0.667"></circle><circle cx="81.383" cy="41.993" r="0.572"></circle><circle cx="69.864" cy="38.079" r="0.573"></circle><circle cx="85.221" cy="41.993" r="0.479"></circle><circle cx="89.058" cy="41.995" r="0.383"></circle><circle cx="73.6" cy="38.079" r="0.383"></circle><circle cx="35.251" cy="38.079" r="1.144"></circle><circle cx="31.413" cy="38.079" r="1.049"></circle><circle cx="27.58" cy="38.079" r="0.668"></circle><circle cx="23.743" cy="38.079" r="0.573"></circle><circle cx="20.008" cy="38.079" r="0.383"></circle><circle cx="35.251" cy="42.019" r="1.144"></circle><circle cx="31.413" cy="42.019" r="1.049"></circle><circle cx="27.58" cy="42.019" r="0.668"></circle><circle cx="23.743" cy="42.019" r="0.573"></circle><circle cx="20.008" cy="42.021" r="0.383"></circle><circle cx="54.616" cy="30.349" r="1.048"></circle><path d="M59.117,30.349c0,0.369-0.3,0.67-0.669,0.67s-0.668-0.301-0.668-0.67c0-0.367,0.299-0.668,0.668-0.668   S59.117,29.981,59.117,30.349z"></path><circle cx="62.286" cy="30.349" r="0.573"></circle><circle cx="66.021" cy="30.35" r="0.384"></circle><circle cx="54.405" cy="26.712" r="0.573"></circle><circle cx="58.141" cy="26.712" r="0.383"></circle><circle cx="54.511" cy="45.658" r="1.476"></circle><circle cx="54.511" cy="53.083" r="1.475"></circle><circle cx="54.511" cy="57.024" r="1.475"></circle><circle cx="43.004" cy="57.024" r="1.475"></circle><circle cx="39.237" cy="26.58" r="0.886"></circle><circle cx="39.237" cy="30.425" r="1.004"></circle><circle cx="35.368" cy="76.399" r="0.574"></circle><circle cx="31.529" cy="76.399" r="0.479"></circle><circle cx="27.692" cy="76.397" r="0.383"></circle><circle cx="39.237" cy="76.5" r="1.003"></circle><circle cx="39.237" cy="34.271" r="1.12"></circle><circle cx="39.237" cy="38.079" r="1.24"></circle><path d="M34.107,72.329c0-0.629,0.512-1.143,1.143-1.143c0.633,0,1.146,0.514,1.146,1.143c0,0.635-0.513,1.146-1.146,1.146   C34.619,73.476,34.107,72.964,34.107,72.329z"></path><path d="M30.364,72.329c0-0.576,0.47-1.047,1.049-1.047c0.58,0,1.049,0.471,1.049,1.047c0,0.584-0.469,1.053-1.049,1.053   C30.834,73.382,30.364,72.913,30.364,72.329z"></path><path d="M26.912,72.329c0-0.365,0.301-0.666,0.669-0.666c0.369,0,0.667,0.301,0.667,0.666c0,0.371-0.298,0.67-0.667,0.67   C27.213,72.999,26.912,72.7,26.912,72.329z"></path><path d="M23.17,72.329c0-0.314,0.257-0.57,0.573-0.57s0.572,0.256,0.572,0.57c0,0.318-0.256,0.574-0.572,0.574   S23.17,72.647,23.17,72.329z"></path><path d="M20.008,71.948c0.212,0,0.384,0.17,0.384,0.381c0,0.215-0.172,0.385-0.384,0.385c-0.21,0-0.383-0.17-0.383-0.385   C19.625,72.118,19.798,71.948,20.008,71.948z"></path><path d="M39.237,71.093c-0.687,0-1.24,0.553-1.24,1.236c0,0.688,0.554,1.24,1.24,1.24c0.684,0,1.238-0.553,1.238-1.24   C40.476,71.646,39.921,71.093,39.237,71.093z"></path><circle cx="39.237" cy="41.963" r="1.356"></circle><circle cx="35.251" cy="49.446" r="1.144"></circle><circle cx="31.413" cy="49.446" r="1.049"></circle><circle cx="27.58" cy="49.446" r="0.668"></circle><circle cx="23.743" cy="49.446" r="0.573"></circle><circle cx="20.008" cy="49.446" r="0.383"></circle><path d="M39.237,48.032c-0.751,0-1.357,0.609-1.357,1.359c0,0.746,0.606,1.355,1.357,1.355c0.748,0,1.356-0.609,1.356-1.355   C40.594,48.642,39.985,48.032,39.237,48.032z"></path><circle cx="39.237" cy="45.809" r="1.476"></circle><circle cx="39.237" cy="53.404" r="1.474"></circle><circle cx="35.535" cy="57.193" r="1.239"></circle><circle cx="31.698" cy="57.192" r="1.144"></circle><circle cx="27.713" cy="57.192" r="0.764"></circle><circle cx="23.876" cy="57.192" r="0.668"></circle><circle cx="20.038" cy="57.192" r="0.573"></circle><circle cx="16.2" cy="57.192" r="0.479"></circle><circle cx="12.363" cy="57.193" r="0.382"></circle><circle cx="8.422" cy="57.191" r="0.317"></circle><circle cx="4.481" cy="57.193" r="0.28"></circle><circle cx="39.237" cy="57.192" r="1.475"></circle><circle cx="35.535" cy="60.981" r="1.238"></circle><circle cx="31.698" cy="60.981" r="1.144"></circle><path d="M26.949,60.981c0-0.422,0.343-0.762,0.766-0.762c0.42,0,0.762,0.34,0.762,0.762c0,0.424-0.342,0.764-0.762,0.764   C27.292,61.745,26.949,61.405,26.949,60.981z"></path><path d="M23.208,60.983c0-0.369,0.299-0.67,0.668-0.67s0.669,0.299,0.669,0.67c-0.001,0.367-0.3,0.666-0.669,0.666   S23.208,61.351,23.208,60.983z"></path><circle cx="20.038" cy="60.983" r="0.573"></circle><circle cx="16.2" cy="60.981" r="0.479"></circle><circle cx="12.363" cy="60.982" r="0.382"></circle><circle cx="8.422" cy="60.982" r="0.317"></circle><circle cx="4.481" cy="60.982" r="0.28"></circle><circle cx="73.796" cy="65.074" r="0.28"></circle><circle cx="73.796" cy="68.862" r="0.279"></circle><circle cx="39.236" cy="64.923" r="1.238"></circle><circle cx="35.487" cy="64.923" r="1.144"></circle><circle cx="31.503" cy="64.923" r="0.764"></circle><circle cx="27.665" cy="64.923" r="0.669"></circle><circle cx="23.828" cy="64.923" r="0.574"></circle><circle cx="19.989" cy="64.923" r="0.478"></circle><circle cx="16.151" cy="64.923" r="0.383"></circle><circle cx="12.212" cy="64.923" r="0.316"></circle><circle cx="8.271" cy="64.923" r="0.279"></circle><circle cx="39.236" cy="68.711" r="1.239"></circle><circle cx="35.487" cy="68.712" r="1.144"></circle><circle cx="31.503" cy="68.712" r="0.764"></circle><circle cx="27.665" cy="68.712" r="0.669"></circle><circle cx="23.828" cy="68.712" r="0.574"></circle><circle cx="19.989" cy="68.712" r="0.478"></circle><circle cx="16.151" cy="68.712" r="0.383"></circle><circle cx="12.212" cy="68.713" r="0.317"></circle><circle cx="39.237" cy="60.982" r="1.476"></circle></g></g>
</svg>
</g><g opacity="1" transform="rotate(0 143.8087 645.6473)">
<svg width="322.445" height="19" x="143.8087" y="645.6473" version="1.1" preserveAspectRatio="none" viewBox="2.92 -28 480.56 28.32">
  <g transform="matrix(1 0 0 1 0 0)" class="text"><path id="id-6izo4zJp22" d="M22.44-26.48L25.44-26.48L25.44-11.40Q25.44-6.12 22.30-2.90Q19.16 0.32 14.16 0.32L14.16 0.32Q9.20 0.32 6.06-2.90Q2.92-6.12 2.92-11.40L2.92-11.40L2.92-26.48L5.92-26.48L5.92-11.32Q5.92-7.04 8.48-4.64L8.48-4.64Q10.68-2.60 14.16-2.60L14.16-2.60Q17.64-2.60 19.88-4.64L19.88-4.64Q22.44-7 22.44-11.32L22.44-11.32L22.44-26.48Z M34.52-20L37.52-20L37.52-16.88Q38.60-18.32 40.16-19.32Q41.72-20.32 43.72-20.32Q45.72-20.32 47.16-19.76Q48.60-19.20 49.68-18.08L49.68-18.08Q52.16-15.64 52.16-11.64L52.16-11.64L52.16 0L49.16 0L49.16-11.56Q49.16-14.32 47.60-15.96Q46.04-17.60 43.56-17.60L43.56-17.60Q41.04-17.60 39.28-15.92L39.28-15.92Q37.52-14.20 37.52-11.52L37.52-11.52L37.52 0L34.52 0L34.52-20Z M64.16-28L64.16 0L61.16 0L61.16-28L64.16-28Z M82.28-2.40L82.28-2.40Q86.32-2.40 88.08-5.76L88.08-5.76L91.36-5.76Q90.32-3.04 88.06-1.36Q85.80 0.32 82.24 0.32L82.24 0.32Q77.72 0.32 74.88-2.68L74.88-2.68Q72.12-5.60 72.12-10L72.12-10Q72.12-14.44 74.76-17.32L74.76-17.32Q77.56-20.32 82.04-20.32L82.04-20.32Q86.52-20.32 89.32-17.32L89.32-17.32Q91.96-14.44 91.96-10L91.96-10L91.96-8.80L75.20-8.80Q75.52-6.04 77.40-4.24L77.40-4.24Q79.32-2.40 82.28-2.40ZM82.04-17.60L82.04-17.60Q79.28-17.60 77.40-15.88L77.40-15.88Q75.64-14.24 75.24-11.60L75.24-11.60L88.84-11.60Q88.44-14.24 86.68-15.88L86.68-15.88Q84.80-17.60 82.04-17.60Z M115.24 0L115.24-3.20Q112.84 0.32 108.08 0.32L108.08 0.32Q103.76 0.32 101.04-2.68L101.04-2.68Q98.40-5.64 98.40-10L98.40-10Q98.40-14.36 101.04-17.32L101.04-17.32Q103.76-20.32 108.28-20.32Q112.80-20.32 115.24-16.76L115.24-16.76L115.24-20L118.24-20L118.24 0L115.24 0ZM108.48-2.40L108.48-2.40Q111.72-2.40 113.60-4.64L113.60-4.64Q115.40-6.76 115.40-10L115.40-10Q115.40-13.24 113.60-15.36L113.60-15.36Q111.72-17.60 108.48-17.60L108.48-17.60Q105.28-17.60 103.28-15.36L103.28-15.36Q101.40-13.24 101.40-10L101.40-10Q101.40-6.76 103.28-4.64L103.28-4.64Q105.28-2.40 108.48-2.40Z M142.24-14.64L139.20-14.64Q138.80-17.76 134.18-17.76Q129.56-17.76 129.56-14.88L129.56-14.88Q129.56-13.68 130.54-13.06Q131.52-12.44 133-12.04Q134.48-11.64 136.22-11.30Q137.96-10.96 139.44-10.34Q140.92-9.72 141.90-8.64Q142.88-7.56 142.88-5.68L142.88-5.68Q142.88-2.76 140.68-1.22Q138.48 0.32 134.72 0.32L134.72 0.32Q130.72 0.32 128.36-1.68L128.36-1.68Q126.20-3.44 126.04-6.28L126.04-6.28L129.16-6.28Q129.44-3.52 132.28-2.56L132.28-2.56Q133.32-2.24 134.34-2.24Q135.36-2.24 136.24-2.36Q137.12-2.48 137.96-2.80L137.96-2.80Q139.88-3.56 139.88-5.40L139.88-5.40Q139.88-6.64 138.90-7.30Q137.92-7.96 136.44-8.38Q134.96-8.80 133.22-9.14Q131.48-9.48 130-10.08Q128.52-10.68 127.54-11.72Q126.56-12.76 126.56-14.60L126.56-14.60Q126.56-17.32 128.54-18.82Q130.52-20.32 134.40-20.32L134.40-20.32Q138.08-20.32 140.20-18.56L140.20-18.56Q141.96-17.08 142.24-14.64L142.24-14.64Z M150.72-28L153.72-28L153.72-16.88Q154.80-18.32 156.36-19.32Q157.92-20.32 159.92-20.32Q161.92-20.32 163.36-19.76Q164.80-19.20 165.88-18.08L165.88-18.08Q168.36-15.64 168.36-11.64L168.36-11.64L168.36 0L165.36 0L165.36-11.56Q165.36-14.32 163.80-15.96Q162.24-17.60 159.76-17.60L159.76-17.60Q157.24-17.60 155.48-15.92L155.48-15.92Q153.72-14.20 153.72-11.52L153.72-11.52L153.72 0L150.72 0L150.72-28Z M201.36-10.48L201.36 0L198.36 0L198.36-10.48L187.24-26.48L190.88-26.48L199.84-13.60L208.80-26.48L212.44-26.48L201.36-10.48Z M224.44-20.32L224.44-20.32Q228.92-20.32 231.72-17.32L231.72-17.32Q234.36-14.44 234.36-10L234.36-10Q234.36-5.56 231.72-2.68L231.72-2.68Q228.92 0.32 224.44 0.32L224.44 0.32Q219.96 0.32 217.16-2.68L217.16-2.68Q214.52-5.56 214.52-10L214.52-10Q214.52-14.44 217.16-17.32L217.16-17.32Q219.96-20.32 224.44-20.32ZM224.44-2.40L224.44-2.40Q227.68-2.40 229.56-4.64L229.56-4.64Q231.36-6.76 231.36-10L231.36-10Q231.36-13.24 229.56-15.36L229.56-15.36Q227.68-17.60 224.44-17.60L224.44-17.60Q221.20-17.60 219.32-15.36L219.32-15.36Q217.52-13.24 217.52-10L217.52-10Q217.52-6.76 219.32-4.64L219.32-4.64Q221.20-2.40 224.44-2.40Z M259.76 0L256.76 0L256.76-3.12Q255.68-1.68 254.12-0.68Q252.56 0.32 250.56 0.32Q248.56 0.32 247.12-0.24Q245.68-0.80 244.60-1.92L244.60-1.92Q242.12-4.36 242.12-8.36L242.12-8.36L242.12-20L245.12-20L245.12-8.44Q245.12-5.68 246.68-4.04Q248.24-2.40 250.72-2.40L250.72-2.40Q253.24-2.40 255-4.08L255-4.08Q256.76-5.80 256.76-8.48L256.76-8.48L256.76-20L259.76-20L259.76 0Z M279.32-20.32L279.52-20.32L279.52-17.32L279.16-17.32Q275.92-17.32 273.88-14.72L273.88-14.72Q271.96-12.24 271.96-8.80L271.96-8.80L271.96 0L268.96 0L268.96-20L271.96-20L271.96-15.08Q272.92-18.20 276.12-19.68L276.12-19.68Q277.44-20.32 279.32-20.32L279.32-20.32Z M302.92-9.44L302.92 0L299.92 0L299.92-26.48L311.84-26.48Q316.04-26.48 318.52-24.16L318.52-24.16Q320.96-21.84 320.96-17.96L320.96-17.96Q320.96-14.04 318.50-11.74Q316.04-9.44 311.84-9.44L311.84-9.44L302.92-9.44ZM311.64-23.64L302.92-23.64L302.92-12.24L311.64-12.24Q314.76-12.24 316.36-13.76Q317.96-15.28 317.96-17.94Q317.96-20.60 316.36-22.12Q314.76-23.64 311.64-23.64L311.64-23.64Z M336.84-20.32L336.84-20.32Q341.32-20.32 344.12-17.32L344.12-17.32Q346.76-14.44 346.76-10L346.76-10Q346.76-5.56 344.12-2.68L344.12-2.68Q341.32 0.32 336.84 0.32L336.84 0.32Q332.36 0.32 329.56-2.68L329.56-2.68Q326.92-5.56 326.92-10L326.92-10Q326.92-14.44 329.56-17.32L329.56-17.32Q332.36-20.32 336.84-20.32ZM336.84-2.40L336.84-2.40Q340.08-2.40 341.96-4.64L341.96-4.64Q343.76-6.76 343.76-10L343.76-10Q343.76-13.24 341.96-15.36L341.96-15.36Q340.08-17.60 336.84-17.60L336.84-17.60Q333.60-17.60 331.72-15.36L331.72-15.36Q329.92-13.24 329.92-10L329.92-10Q329.92-6.76 331.72-4.64L331.72-4.64Q333.60-2.40 336.84-2.40Z M359.52 0L356.52 0L356.52-17.36L352.44-17.36L352.44-20L356.52-20L356.52-27.16L359.52-27.16L359.52-20L364.12-20L364.12-17.36L359.52-17.36L359.52 0Z M379.92-2.40L379.92-2.40Q383.96-2.40 385.72-5.76L385.72-5.76L389.00-5.76Q387.96-3.04 385.70-1.36Q383.44 0.32 379.88 0.32L379.88 0.32Q375.36 0.32 372.52-2.68L372.52-2.68Q369.76-5.60 369.76-10L369.76-10Q369.76-14.44 372.40-17.32L372.40-17.32Q375.20-20.32 379.68-20.32L379.68-20.32Q384.16-20.32 386.96-17.32L386.96-17.32Q389.60-14.44 389.60-10L389.60-10L389.60-8.80L372.84-8.80Q373.16-6.04 375.04-4.24L375.04-4.24Q376.96-2.40 379.92-2.40ZM379.68-17.60L379.68-17.60Q376.92-17.60 375.04-15.88L375.04-15.88Q373.28-14.24 372.88-11.60L372.88-11.60L386.48-11.60Q386.08-14.24 384.32-15.88L384.32-15.88Q382.44-17.60 379.68-17.60Z M397.28-20L400.28-20L400.28-16.88Q401.36-18.32 402.92-19.32Q404.48-20.32 406.48-20.32Q408.48-20.32 409.92-19.76Q411.36-19.20 412.44-18.08L412.44-18.08Q414.92-15.64 414.92-11.64L414.92-11.64L414.92 0L411.92 0L411.92-11.56Q411.92-14.32 410.36-15.96Q408.80-17.60 406.32-17.60L406.32-17.60Q403.80-17.60 402.04-15.92L402.04-15.92Q400.28-14.20 400.28-11.52L400.28-11.52L400.28 0L397.28 0L397.28-20Z M428.60 0L425.60 0L425.60-17.36L421.52-17.36L421.52-20L425.60-20L425.60-27.16L428.60-27.16L428.60-20L433.20-20L433.20-17.36L428.60-17.36L428.60 0Z M440.48 0L440.48-20L443.48-20L443.48 0L440.48 0ZM440.36-27.28L443.60-27.28L443.60-23.36L440.36-23.36L440.36-27.28Z M468.28 0L468.28-3.20Q465.88 0.32 461.12 0.32L461.12 0.32Q456.80 0.32 454.08-2.68L454.08-2.68Q451.44-5.64 451.44-10L451.44-10Q451.44-14.36 454.08-17.32L454.08-17.32Q456.80-20.32 461.32-20.32Q465.84-20.32 468.28-16.76L468.28-16.76L468.28-20L471.28-20L471.28 0L468.28 0ZM461.52-2.40L461.52-2.40Q464.76-2.40 466.64-4.64L466.64-4.64Q468.44-6.76 468.44-10L468.44-10Q468.44-13.24 466.64-15.36L466.64-15.36Q464.76-17.60 461.52-17.60L461.52-17.60Q458.32-17.60 456.32-15.36L456.32-15.36Q454.44-13.24 454.44-10L454.44-10Q454.44-6.76 456.32-4.64L456.32-4.64Q458.32-2.40 461.52-2.40Z M483.48-28L483.48 0L480.48 0L480.48-28L483.48-28Z"/></g>
</svg>
</g><g opacity="1" transform="rotate(0 126.2893 523.6473)">
<svg width="357.4838" height="100" x="126.2893" y="523.6473" version="1.1" preserveAspectRatio="none" viewBox="-0.36 -31.48 113.67999999999999 31.8">
  <g transform="matrix(1 0 0 1 0 0)" class="companyName"><path id="id-D6z1nYkh5" d="M24.24 0L21.76-6L8.76-6L6.28 0L-0.36 0L12.12-28L18.52-28L31.04 0L24.24 0ZM10.84-10.92L19.72-10.92L15.28-21.64L10.84-10.92Z M46.60-21.84Q50.60-21.84 53.06-19.44Q55.52-17.04 55.52-12.32L55.52-12.32L55.52 0L49.28 0L49.28-11.36Q49.28-13.92 48.16-15.18Q47.04-16.44 44.92-16.44L44.92-16.44Q42.56-16.44 41.16-14.98Q39.76-13.52 39.76-10.64L39.76-10.64L39.76 0L33.52 0L33.52-21.52L39.48-21.52L39.48-19Q40.72-20.36 42.56-21.10Q44.40-21.84 46.60-21.84L46.60-21.84Z M77.20 0L70.40-8.44L67.40-5.48L67.40 0L61.16 0L61.16-29.68L67.40-29.68L67.40-12.88L76.52-21.52L83.96-21.52L75-12.40L84.76 0L77.20 0Z M87.40 0L87.40-21.52L93.64-21.52L93.64 0L87.40 0ZM90.52-24.52Q88.80-24.52 87.72-25.52Q86.64-26.52 86.64-28L86.64-28Q86.64-29.48 87.72-30.48Q88.80-31.48 90.52-31.48L90.52-31.48Q92.24-31.48 93.32-30.52Q94.40-29.56 94.40-28.12L94.40-28.12Q94.40-26.56 93.32-25.54Q92.24-24.52 90.52-24.52L90.52-24.52Z M111.64-5.44L113.32-1.04Q112.40-0.36 111.06-0.02Q109.72 0.32 108.24 0.32L108.24 0.32Q104.40 0.32 102.30-1.64Q100.20-3.60 100.20-7.40L100.20-7.40L100.20-16.24L96.88-16.24L96.88-21.04L100.20-21.04L100.20-26.28L106.44-26.28L106.44-21.04L111.80-21.04L111.80-16.24L106.44-16.24L106.44-7.48Q106.44-6.12 107.14-5.38Q107.84-4.64 109.12-4.64L109.12-4.64Q110.60-4.64 111.64-5.44L111.64-5.44Z"/></g>
</svg>
</g></svg></svg>